# xmcd
#
# Track frame offsets:
#	150
#	20412
#	37692
#
# Disc length: 773 seconds
#
# Revision: 0
# Processed by: cddbd v1.5.2PL0 Copyright (c) Steve Scherf et al.
# Submitted via: dBpowerAMP V4.0
#
DISCID=14030303
DTITLE=81db - Promo 2006
DYEAR=2006
DGENRE=AlternRock
TTITLE0=So Wounded
TTITLE1=Voices
TTITLE2=Generation XXX
EXTD=
EXTT0=
EXTT1=
EXTT2=
PLAYORDER=
